<?xml version="1.0" encoding="utf-8"?>
<!-- Generator: Adobe Illustrator 21.0.0, SVG Export Plug-In . SVG Version: 6.00 Build 0)  -->
<svg version="1.1" id="Layer_1" xmlns="http://www.w3.org/2000/svg" xmlns:xlink="http://www.w3.org/1999/xlink" x="0px" y="0px"
	 viewBox="0 0 768 1400" style="enable-background:new 0 0 768 1400;" xml:space="preserve">
<style type="text/css">
	.st0{fill:#EAEAEA;stroke:#000000;stroke-miterlimit:10;}
	.st1{font-family:'MyriadPro-Regular';}
	.st2{font-size:18px;}
	.st3{fill:none;stroke:#000000;stroke-miterlimit:10;}
	.st4{font-size:12px;}
	.st5{font-size:36px;}
	.st6{fill:#D4F6FF;stroke:#000000;stroke-miterlimit:10;}
	.st7{fill:#DDDDDD;}
	.st8{font-size:14px;}
</style>
<rect x="44" y="546" class="st0" width="616" height="154"/>
<text transform="matrix(1 0 0 1 343.085 45.4746)" class="st1 st2">Site Map</text>
<text transform="matrix(1 0 0 1 343.085 523.4746)" class="st1 st2">Wire Frame</text>
<rect x="100" y="85" class="st3" width="560" height="40"/>
<text transform="matrix(1 0 0 1 164.7119 111.8643)" class="st1 st2">Introduction Material  - Photo that conent scrolls over</text>
<line class="st3" x1="370.5" y1="194" x2="370.5" y2="228"/>
<line class="st3" x1="368.6" y1="126" x2="368.6" y2="159.6"/>
<rect x="100.5" y="159.5" class="st3" width="560" height="34"/>
<text transform="matrix(1 0 0 1 132.7798 183.373)" class="st1 st2">Ingrediets list</text>
<text transform="matrix(6.026647e-03 1 -1 6.026647e-03 705.7429 567.6768)"><tspan x="0" y="0" class="st1 st2">This will be an image-scroll-over </tspan><tspan x="0" y="21.6" class="st1 st2">thing you know what I mean</tspan></text>
<rect x="100.5" y="228.5" class="st3" width="559" height="90"/>
<text transform="matrix(1 0 0 1 132.6104 258.5083)"><tspan x="0" y="0" class="st1 st2">Each step - perhaps a way to scroll through them </tspan><tspan x="0" y="21.6" class="st1 st2">horizontally? or  just vertically. Illustrated gifs to </tspan><tspan x="0" y="43.2" class="st1 st2">go with each direction</tspan></text>
<line class="st3" x1="370.5" y1="318.5" x2="370.5" y2="361.5"/>
<rect x="99.5" y="363.5" class="st3" width="560" height="88"/>
<text transform="matrix(1 0 0 1 110.5762 393.3389)"><tspan x="0" y="0" class="st1 st2">Here’s where the variations go.  A buton will display</tspan><tspan x="0" y="21.6" class="st1 st2">for each differnt variation and when it is clicked, it will</tspan><tspan x="0" y="43.2" class="st1 st2">appear like a little card beneath all the buttons</tspan></text>
<text transform="matrix(0.9019 0 0 1 155.0459 642.3389)"><tspan x="0" y="0" class="st1 st4">intorduction introduction blah blah blah blah blah blah blah </tspan><tspan x="0" y="14.4" class="st1 st4">st louis blah blah blah we all know I talk a lot</tspan></text>
<text transform="matrix(4.768469e-03 1 -1 4.768469e-03 686.0869 169.0083)" class="st1 st2">&lt;--- LONG SCROLLING ---&gt;</text>
<rect x="44" y="546" class="st3" width="616" height="808"/>
<text transform="matrix(0.9019 0 0 1 148.7944 603.8135)" class="st1 st5">How to Make Gooey Butter Cake</text>
<rect x="148.5" y="623" class="st3" width="474.5" height="48"/>
<line class="st3" x1="623" y1="604" x2="673" y2="604"/>
<text transform="matrix(6.026647e-03 1 -1 6.026647e-03 698.7429 946.1768)"><tspan x="0" y="0" class="st1 st2">These will be</tspan><tspan x="0" y="21.6" class="st1 st2">illustrated gifs</tspan></text>
<text transform="matrix(6.543200e-03 -1 1 6.543200e-03 35.8604 925.3123)" class="st1 st2">jump links</text>
<text transform="matrix(6.543200e-03 -1 1 6.543200e-03 35.8604 633.3123)" class="st1 st2">logo to top</text>
<circle cx="620" cy="604" r="4"/>
<rect x="44" y="546" class="st6" width="74" height="808"/>
<text transform="matrix(-4.651256e-04 -1 1 -4.651256e-04 75.8556 779.1934)"><tspan x="0" y="0" class="st1 st4">Maybe like a fixed</tspan><tspan x="0" y="14.4" class="st1 st4">side navigation ?</tspan></text>
<line class="st3" x1="51" y1="818" x2="111" y2="818"/>
<line class="st3" x1="51" y1="844.5" x2="111" y2="844.5"/>
<line class="st3" x1="51" y1="871.5" x2="111" y2="871.5"/>
<line class="st3" x1="51" y1="898.5" x2="111" y2="898.5"/>
<line class="st3" x1="51" y1="925.5" x2="111" y2="925.5"/>
<line class="st3" x1="51" y1="950.5" x2="111" y2="950.5"/>
<text transform="matrix(1.0614 0 0 1 66.5918 835)" class="st1 st4">step x</text>
<text transform="matrix(1.0614 0 0 1 66.5918 862)" class="st1 st4">step x</text>
<text transform="matrix(1.0614 0 0 1 66.5918 889)" class="st1 st4">step x</text>
<text transform="matrix(1.0614 0 0 1 66.5918 916)" class="st1 st4">step x</text>
<text transform="matrix(1.0614 0 0 1 55.5918 942)" class="st1 st4">variations</text>
<text transform="matrix(1 0 0 1 316 726)" class="st1 st2">What You’ll Need</text>
<text transform="matrix(1 0 0 1 293 905)" class="st1 st2">What You’ll Need to Do</text>
<text transform="matrix(1 0 0 1 352 1212)" class="st1 st2">Variations</text>
<circle class="st7" cx="198.5" cy="778.5" r="15.5"/>
<circle class="st7" cx="273.5" cy="1112.5" r="50.5"/>
<circle class="st7" cx="80.5" cy="581.5" r="22.5"/>
<circle class="st7" cx="539.5" cy="981.5" r="50.5"/>
<circle class="st7" cx="234.5" cy="809.5" r="15.5"/>
<circle class="st7" cx="463.5" cy="843.5" r="15.5"/>
<circle class="st7" cx="435.5" cy="809.5" r="15.5"/>
<circle class="st7" cx="198.5" cy="840.5" r="15.5"/>
<circle class="st7" cx="232.5" cy="1243.5" r="15.5"/>
<circle class="st7" cx="241.5" cy="1316.5" r="15.5"/>
<circle class="st7" cx="312.5" cy="1243.5" r="15.5"/>
<circle class="st7" cx="390.5" cy="1243.5" r="15.5"/>
<circle class="st7" cx="547.5" cy="1243.5" r="15.5"/>
<circle class="st7" cx="467.5" cy="1243.5" r="15.5"/>
<circle class="st7" cx="463.5" cy="778.5" r="15.5"/>
<text transform="matrix(1 0 0 1 228 779)" class="st1 st4">you’’ll need this</text>
<text transform="matrix(1 0 0 1 265 810)" class="st1 st4">you’’ll need this</text>
<text transform="matrix(1 0 0 1 228 844)" class="st1 st4">oh and this</text>
<text transform="matrix(1 0 0 1 469 811)" class="st1 st4">this is most important</text>
<text transform="matrix(1 0 0 1 492 844)" class="st1 st4">jk this is</text>
<text transform="matrix(1 0 0 1 497 779)" class="st1 st4">can’t forget this</text>
<text transform="matrix(1 0 0 1 268 954)" class="st1 st8">1</text>
<circle class="st3" cx="271.8" cy="948.8" r="13.8"/>
<circle class="st3" cx="525.8" cy="1094.8" r="13.8"/>
<text transform="matrix(1 0 0 1 521 1100)" class="st1 st8">2</text>
<text transform="matrix(1 0 0 1 153.7559 981)"><tspan x="0" y="0" class="st1 st8">Here is the direction Here is the direction </tspan><tspan x="0" y="16.8" class="st1 st8">Here is the direction Here is the direction </tspan></text>
<text transform="matrix(1 0 0 1 269 1312)"><tspan x="0" y="0" class="st1 st8">Here is where the varying direction will display </tspan><tspan x="0" y="16.8" class="st1 st8">once it’s icon is clicked above</tspan></text>
<text transform="matrix(1 0 0 1 402.2402 1132)"><tspan x="0" y="0" class="st1 st8">Here is the direction Here is the direction</tspan><tspan x="60.1" y="16.8" class="st1 st8">Here is the direction</tspan></text>
<line class="st3" x1="118" y1="1046.5" x2="660" y2="1046.5"/>
<line class="st3" x1="118" y1="1187.5" x2="660" y2="1187.5"/>
<line class="st3" x1="118" y1="880.5" x2="660" y2="880.5"/>
<line class="st3" x1="115" y1="916.5" x2="657" y2="916.5"/>
<line class="st3" x1="118" y1="736.5" x2="660" y2="736.5"/>
<text transform="matrix(1 0 0 1 200.1265 1271)" class="st1 st4">Lorem ipsum</text>
<text transform="matrix(1 0 0 1 279.1265 1271)" class="st1 st4">Lorem ipsum</text>
<text transform="matrix(1 0 0 1 358.1265 1271)" class="st1 st4">Lorem ipsum</text>
<text transform="matrix(1 0 0 1 435.1265 1271)" class="st1 st4">Lorem ipsum</text>
<text transform="matrix(1 0 0 1 515.1265 1272)" class="st1 st4">Lorem ipsum</text>
<rect x="209" y="1292.5" class="st3" width="389" height="48"/>
<circle cx="574" cy="983" r="4"/>
<line class="st3" x1="573.5" y1="982.5" x2="666" y2="982.5"/>
<text transform="matrix(6.026647e-03 1 -1 6.026647e-03 727.7429 1263.1769)"><tspan x="0" y="0" class="st1 st2">This will appear</tspan><tspan x="0" y="21.6" class="st1 st2">when a vari</tspan><tspan x="0" y="43.2" class="st1 st2">is choosen</tspan></text>
<circle cx="582" cy="1317" r="4"/>
<line class="st3" x1="581.5" y1="1316.5" x2="674" y2="1316.5"/>
</svg>
